# xmcd
#
# Track frame offsets:
#	150
#	10491
#	19998
#	29869
#	48146
#	66039
#	79742
#	96370
#	112580
#	126714
#	137441
#	153191
#	162657
# Disc length: 2321 seconds
# Revision: 1
# Processed by: cddbd v1.5.1PL0 Copyright (c) Steve Scherf et al.
#
# Submitted via: libkcddb 0.10
#
DISCID=ab090f0d
DTITLE=Tina Rauch and Country Time Special - Best of 10 years
DYEAR=1900
DGENRE=Unknown
TTITLE0=Country Roads (1993)
TTITLE1=Walking after midnight (1994)
TTITLE2=Move it on over (1992)
TTITLE3=Long black limousine (1993)
TTITLE4=Dark as a dungeon (1995)
TTITLE5=Curley Joe (1992)
TTITLE6=Don't forget about me (1995)
TTITLE7=If you were in love (1996)
TTITLE8=Truckerlady deep down in my heart (1996)
TTITLE9=Stranger in your room (1995)
TTITLE10=Country waltzin' (1997)
TTITLE11=I love you honey (1993)
TTITLE12=Bonus-Track: Schaffts den Montag ab (1991)
EXTD=
EXTT0=
EXTT1=
EXTT2=
EXTT3=
EXTT4=
EXTT5=
EXTT6=
EXTT7=
EXTT8=
EXTT9=
EXTT10=
EXTT11=
EXTT12=
PLAYORDER=
